HIERARCHY
ROOT hip
{
  OFFSET 0 0 0
  CHANNELS 6 Xposition Yposition Zposition Zrotation Yrotation Xrotation
  JOINT abdomen
  {
    OFFSET 0 20.6881 -0.73152
    CHANNELS 3 Zrotation Xrotation Yrotation
    JOINT chest
    {
      OFFSET 0 11.7043 -0.48768
      CHANNELS 3 Zrotation Xrotation Yrotation
      JOINT neck
      {
        OFFSET 0 22.1894 -2.19456
        CHANNELS 3 Zrotation Xrotation Yrotation
        JOINT head
        {
          OFFSET -0.24384 7.07133 1.2192
          CHANNELS 3 Zrotation Xrotation Yrotation
          JOINT leftEye
          {
            OFFSET 4.14528 8.04674 8.04672
            CHANNELS 3 Zrotation Xrotation Yrotation
            End Site
            {
              OFFSET 1 0 0
            }
          }
          JOINT rightEye
          {
            OFFSET -3.6576 8.04674 8.04672
            CHANNELS 3 Zrotation Xrotation Yrotation
            End Site
            {
              OFFSET 1 0 0
            }
          }
        }
      }
      JOINT rCollar
      {
        OFFSET -2.68224 19.2634 -4.8768
        CHANNELS 3 Zrotation Xrotation Yrotation
        JOINT rShldr
        {
          OFFSET -8.77824 -1.95073 1.46304
          CHANNELS 3 Zrotation Xrotation Yrotation
          JOINT rForeArm
          {
            OFFSET -28.1742 -1.7115 0.48768
            CHANNELS 3 Zrotation Xrotation Yrotation
            JOINT rHand
            {
              OFFSET -22.5879 0.773209 7.07136
              CHANNELS 3 Zrotation Xrotation Yrotation
              JOINT rThumb1
              {
                OFFSET -1.2192 -0.487915 3.41376
                CHANNELS 3 Zrotation Xrotation Yrotation
                JOINT rThumb2
                {
                  OFFSET -3.37035 -0.52449 3.41376
                  CHANNELS 3 Zrotation Xrotation Yrotation
                  End Site
                  {
                    OFFSET -1.78271 -1.18214 1.43049
                  }
                }
              }
              JOINT rIndex1
              {
                OFFSET -7.75947 0.938293 5.60832
                CHANNELS 3 Zrotation Xrotation Yrotation
                JOINT rIndex2
                {
                  OFFSET -2.54057 -0.884171 1.56538
                  CHANNELS 3 Zrotation Xrotation Yrotation
                  End Site
                  {
                    OFFSET -1.62519 -0.234802 1.16502
                  }
                }
              }
              JOINT rMid1
              {
                OFFSET -8.24714 1.18213 3.41376
                CHANNELS 3 Zrotation Xrotation Yrotation
                JOINT rMid2
                {
                  OFFSET -3.10165 -0.590103 1.0647
                  CHANNELS 3 Zrotation Xrotation Yrotation
                  End Site
                  {
                    OFFSET -2.48547 -0.328903 0.83742
                  }
                }
              }
              JOINT rRing1
              {
                OFFSET -8.82822 0.546677 1.51678
                CHANNELS 3 Zrotation Xrotation Yrotation
                JOINT rRing2
                {
                  OFFSET -2.60934 -0.819778 -0.0198488
                  CHANNELS 3 Zrotation Xrotation Yrotation
                  End Site
                  {
                    OFFSET -2.33842 -0.294052 0.168128
                  }
                }
              }
              JOINT rPinky1
              {
                OFFSET -8.27202 -0.0477905 -0.4584
                CHANNELS 3 Zrotation Xrotation Yrotation
                JOINT rPinky2
                {
                  OFFSET -1.82734 -0.647385 -0.700984
                  CHANNELS 3 Zrotation Xrotation Yrotation
                  End Site
                  {
                    OFFSET -1.69225 -0.51767 -0.607171
                  }
                }
              }
            }
          }
        }
      }
      JOINT lCollar
      {
        OFFSET 2.68224 19.2634 -4.8768
        CHANNELS 3 Zrotation Xrotation Yrotation
        JOINT lShldr
        {
          OFFSET 8.77824 -1.95073 1.46304
          CHANNELS 3 Zrotation Xrotation Yrotation
          JOINT lForeArm
          {
            OFFSET 28.1742 -1.7115 0.48768
            CHANNELS 3 Zrotation Xrotation Yrotation
            JOINT lHand
            {
              OFFSET 22.5879 0.773209 7.07136
              CHANNELS 3 Zrotation Xrotation Yrotation
              JOINT lThumb1
              {
                OFFSET 1.2192 -0.487915 3.41376
                CHANNELS 3 Zrotation Xrotation Yrotation
                JOINT lThumb2
                {
                  OFFSET 3.37035 -0.52449 3.41376
                  CHANNELS 3 Zrotation Xrotation Yrotation
                  End Site
                  {
                    OFFSET 1.78271 -1.18214 1.43049
                  }
                }
              }
              JOINT lIndex1
              {
                OFFSET 7.75947 0.938293 5.60832
                CHANNELS 3 Zrotation Xrotation Yrotation
                JOINT lIndex2
                {
                  OFFSET 2.54057 -0.884171 1.56538
                  CHANNELS 3 Zrotation Xrotation Yrotation
                  End Site
                  {
                    OFFSET 1.62519 -0.234802 1.16502
                  }
                }
              }
              JOINT lMid1
              {
                OFFSET 8.24714 1.18213 3.41376
                CHANNELS 3 Zrotation Xrotation Yrotation
                JOINT lMid2
                {
                  OFFSET 3.10165 -0.590103 1.0647
                  CHANNELS 3 Zrotation Xrotation Yrotation
                  End Site
                  {
                    OFFSET 2.48547 -0.328903 0.83742
                  }
                }
              }
              JOINT lRing1
              {
                OFFSET 8.82822 0.546677 1.51678
                CHANNELS 3 Zrotation Xrotation Yrotation
                JOINT lRing2
                {
                  OFFSET 2.60934 -0.819778 -0.0198488
                  CHANNELS 3 Zrotation Xrotation Yrotation
                  End Site
                  {
                    OFFSET 2.33842 -0.294052 0.168128
                  }
                }
              }
              JOINT lPinky1
              {
                OFFSET 8.27202 -0.0477905 -0.4584
                CHANNELS 3 Zrotation Xrotation Yrotation
                JOINT lPinky2
                {
                  OFFSET 1.82734 -0.647385 -0.700984
                  CHANNELS 3 Zrotation Xrotation Yrotation
                  End Site
                  {
                    OFFSET 1.69225 -0.51767 -0.607171
                  }
                }
              }
            }
          }
        }
      }
    }
  }
  JOINT rButtock
  {
    OFFSET -8.77824 4.35084 1.2192
    CHANNELS 3 Zrotation Xrotation Yrotation
    JOINT rThigh
    {
      OFFSET 0 -1.70687 -2.19456
      CHANNELS 3 Zrotation Xrotation Yrotation
      JOINT rShin
      {
        OFFSET 0 -36.8199 0.73152
        CHANNELS 3 Zrotation Xrotation Yrotation
        JOINT rFoot
        {
          OFFSET 0.73152 -45.1104 -5.12064
          CHANNELS 3 Zrotation Xrotation Yrotation
          End Site
          {
            OFFSET -1.1221 -3.69964 12.103
          }
        }
      }
    }
  }
  JOINT lButtock
  {
    OFFSET 8.77824 4.35084 1.2192
    CHANNELS 3 Zrotation Xrotation Yrotation
    JOINT lThigh
    {
      OFFSET 0 -1.70687 -2.19456
      CHANNELS 3 Zrotation Xrotation Yrotation
      JOINT lShin
      {
        OFFSET 0 -36.8199 0.73152
        CHANNELS 3 Zrotation Xrotation Yrotation
        JOINT lFoot
        {
          OFFSET -0.73152 -45.1104 -5.12064
          CHANNELS 3 Zrotation Xrotation Yrotation
          End Site
          {
            OFFSET 1.1221 -3.69964 12.103
          }
        }
      }
    }
  }
}
MOTION
Frames:	8
Frame Time:	0.00833333
-8.4737 77.4444 -154.898 552.578 82.9627 -516.016 -0.152706 -11.0007 -4.87449 3.05661 -2.84421 -1.15864 -8.34591 18.3143 -15.1503 24.1259 -1.59473 -27.3107 -0.0 0.0 0.0 -0.0 0.0 0.0 -2.19338e-13 -3.61513e-12 1.43467e-14 79.4616 28.4163 -13.1908 -9.1868 -3.66157 16.2851 -0.0200203 -4.02905 -0.567198 -1.36018e-09 -2.13657e-09 4.88494e-09 -2.35904e-09 -3.69654e-09 8.44267e-09 -1.36018e-09 -2.13657e-09 4.88493e-09 7.73091 5.47488 0.417314 -1.36019e-09 -2.13657e-09 4.88495e-09 2.90554 0.965183 0.102902 -1.36018e-09 -2.13657e-09 4.88494e-09 10.2786 0.731801 0.0259123 -1.36019e-09 -2.13656e-09 4.88494e-09 2.22167 -0.733487 -0.20892 -2.19577e-13 -3.61514e-12 1.41153e-14 -83.9159 19.6054 9.54178 16.7476 -9.40102 -31.2664 1.30857 30.6457 -4.77593 1.09343e-09 -1.033e-09 -6.9023e-10 1.87677e-09 -1.78621e-09 -1.22403e-09 1.09342e-09 -1.033e-09 -6.9021e-10 -7.73091 5.47488 -0.417314 1.09343e-09 -1.033e-09 -6.90222e-10 -2.90554 0.965183 -0.102902 1.09343e-09 -1.033e-09 -6.90223e-10 -10.2786 0.731801 -0.0259123 1.09344e-09 -1.033e-09 -6.90228e-10 -2.22167 -0.733487 0.20892 -2.03217e-16 0.0 -3.88251e-19 11.3063 -33.6292 28.7715 -0.121228 26.6924 0.508283 -9.07298 -12.8872 -27.5592 2.03217e-16 0.0 3.88251e-19 -2.4517 -4.95311 -11.2517 0.129805 26.6914 -0.454183 0.877961 0.134657 6.2365
-7.76309 77.4905 -154.759 553.3 83.0111 -515.494 0.483285 -11.1349 -4.66203 2.98572 -2.83513 -1.10289 -8.36665 18.3258 -15.1649 23.9509 -1.61898 -27.3391 -0.0 0.0 0.0 -0.0 0.0 0.0 -2.81554e-13 -1.30006e-11 1.11816e-13 79.5579 28.3004 -13.1472 -9.1892 -3.66298 16.2895 -0.0192061 -3.95329 -0.55649 -1.82336e-09 -3.13164e-09 6.25298e-09 -3.16284e-09 -5.4188e-09 1.08074e-08 -1.82336e-09 -3.13164e-09 6.25298e-09 7.73091 5.47488 0.417314 -1.82337e-09 -3.13164e-09 6.25299e-09 2.90554 0.965183 0.102902 -1.82336e-09 -3.13164e-09 6.25298e-09 10.2786 0.731801 0.0259123 -1.82337e-09 -3.13164e-09 6.25299e-09 2.22167 -0.733487 -0.20892 -2.8182e-13 -1.30006e-11 1.11568e-13 -84.0129 19.0667 9.66934 16.6011 -9.25791 -30.9521 1.35679 31.1275 -4.86866 1.06984e-09 -1.23663e-09 -1.01794e-09 1.8301e-09 -2.13523e-09 -1.79082e-09 1.06983e-09 -1.23662e-09 -1.01793e-09 -7.73091 5.47488 -0.417314 1.06984e-09 -1.23662e-09 -1.01794e-09 -2.90554 0.965183 -0.102902 1.06984e-09 -1.23662e-09 -1.01794e-09 -10.2786 0.731801 -0.0259123 1.06985e-09 -1.23663e-09 -1.01794e-09 -2.22167 -0.733487 0.20892 -2.03217e-16 0.0 -3.88251e-19 11.9524 -33.31 28.7111 -0.124989 26.9572 0.472782 -9.07769 -13.2618 -27.2206 2.03217e-16 0.0 3.88251e-19 -1.96697 -6.36795 -9.92024 0.171694 29.6141 -0.474867 0.703768 1.49318 5.52528
-7.06216 77.4773 -154.545 555.009 83.0723 -514.009 0.94237 -11.2148 -4.42579 2.91874 -2.79507 -1.0387 -8.27618 18.2976 -15.1797 23.7106 -1.69712 -27.3546 -0.0 0.0 0.0 -0.0 0.0 0.0 -2.51816e-13 -1.24734e-11 7.51783e-14 79.7099 28.4727 -13.1045 -9.20173 -3.66965 16.3135 -0.0216165 -4.22456 -0.594793 -1.71252e-09 -2.73207e-09 5.2256e-09 -2.96888e-09 -4.7272e-09 9.03128e-09 -1.71252e-09 -2.73207e-09 5.22559e-09 7.73091 5.47488 0.417314 -1.71253e-09 -2.73207e-09 5.2256e-09 2.90554 0.965183 0.102902 -1.71252e-09 -2.73207e-09 5.22559e-09 10.2786 0.731801 0.0259123 -1.71253e-09 -2.73207e-09 5.2256e-09 2.22167 -0.733487 -0.20892 -2.5205e-13 -1.24734e-11 7.48968e-14 -84.0928 18.5609 9.81385 16.4532 -9.11558 -30.6345 1.38928 31.4455 -4.93038 9.0925e-10 -1.08107e-09 -9.4651e-10 1.55344e-09 -1.86606e-09 -1.66258e-09 9.09241e-10 -1.08106e-09 -9.46498e-10 -7.73091 5.47488 -0.417314 9.09248e-10 -1.08106e-09 -9.46506e-10 -2.90554 0.965183 -0.102902 9.09241e-10 -1.08106e-09 -9.46504e-10 -10.2786 0.731801 -0.0259123 9.09254e-10 -1.08107e-09 -9.46511e-10 -2.22167 -0.733487 0.20892 -2.03217e-16 0.0 -3.88251e-19 12.5465 -33.0294 28.7762 -0.130415 27.4236 0.44919 -9.16843 -13.7553 -26.9476 2.03217e-16 0.0 3.88251e-19 -1.49076 -7.75989 -8.52597 0.21437 32.5005 -0.506148 0.519107 3.2854 4.61938
-6.36383 77.4609 -154.373 555.907 83.0324 -513.215 1.28066 -11.2533 -4.15999 2.85218 -2.73235 -0.964956 -8.10377 18.242 -15.1967 23.4193 -1.82703 -27.3635 -0.0 0.0 0.0 -0.0 0.0 0.0 -1.61732e-13 -6.40454e-12 -2.17762e-14 79.8949 28.8237 -13.0506 -9.22095 -3.67978 16.3505 -0.0271311 -4.72542 -0.665631 -1.25607e-09 -1.51157e-09 2.72687e-09 -2.17414e-09 -2.61474e-09 4.71177e-09 -1.25606e-09 -1.51156e-09 2.72686e-09 7.73091 5.47488 0.417314 -1.25607e-09 -1.51157e-09 2.72687e-09 2.90554 0.965183 0.102902 -1.25606e-09 -1.51156e-09 2.72686e-09 10.2786 0.731801 0.0259123 -1.25608e-09 -1.51156e-09 2.72687e-09 2.22167 -0.733487 -0.20892 -1.61897e-13 -6.40454e-12 -2.21024e-14 -84.1575 18.0607 9.95751 16.298 -8.96782 -30.3025 1.4103 31.6525 -4.97058 6.35544e-10 -6.98087e-10 -6.43176e-10 1.08523e-09 -1.20513e-09 -1.12962e-09 6.35536e-10 -6.98083e-10 -6.43168e-10 -7.73091 5.47488 -0.417314 6.35541e-10 -6.98086e-10 -6.43175e-10 -2.90554 0.965183 -0.102902 6.35534e-10 -6.98086e-10 -6.43169e-10 -10.2786 0.731801 -0.0259123 6.3555e-10 -6.98087e-10 -6.43177e-10 -2.22167 -0.733487 0.20892 -2.03217e-16 0.0 -3.88251e-19 13.1117 -32.7682 28.9743 -0.136791 28.0327 0.435963 -9.36846 -14.4669 -26.6932 2.03217e-16 0.0 3.88251e-19 -0.986753 -9.1522 -7.03692 0.261459 35.3685 -0.546843 0.362104 5.46933 3.55979
-5.73571 77.4147 -154.192 556.304 82.9538 -512.736 1.59116 -11.2647 -3.91578 2.78141 -2.66539 -0.897321 -7.9249 18.1881 -15.2122 23.1347 -2.00428 -27.3635 -0.0 0.0 0.0 -0.0 0.0 0.0 -5.86816e-14 1.04702e-12 -1.28243e-13 80.0742 29.3129 -12.9821 -9.27571 -3.71117 16.4523 -0.0350492 -5.33992 -0.752694 -7.20034e-10 -1.42579e-10 6.71014e-11 -1.24173e-09 -2.4537e-10 1.13943e-10 -7.2003e-10 -1.42572e-10 6.70859e-11 7.73091 5.47488 0.417314 -7.20037e-10 -1.4258e-10 6.70976e-11 2.90554 0.965183 0.102902 -7.20029e-10 -1.42576e-10 6.70992e-11 10.2786 0.731801 0.0259123 -7.2004e-10 -1.42575e-10 6.71057e-11 2.22167 -0.733487 -0.20892 -5.87694e-14 1.04702e-12 -1.286e-13 -84.2163 17.6043 10.0714 16.1494 -8.82741 -29.9871 1.4208 31.7582 -4.99101 3.98587e-10 -3.01211e-10 -2.88047e-10 6.81452e-10 -5.21075e-10 -5.0797e-10 3.98578e-10 -3.01207e-10 -2.88042e-10 -7.73091 5.47488 -0.417314 3.98583e-10 -3.01211e-10 -2.88049e-10 -2.90554 0.965183 -0.102902 3.98575e-10 -3.0121e-10 -2.8804e-10 -10.2786 0.731801 -0.0259123 3.98592e-10 -3.01211e-10 -2.88048e-10 -2.22167 -0.733487 0.20892 -2.03217e-16 0.0 -3.88251e-19 13.6244 -32.5121 29.148 -0.142785 28.6254 0.422616 -9.5369 -15.025 -26.5605 2.03217e-16 0.0 3.88251e-19 -0.464821 -10.6031 -5.64535 0.314546 38.2349 -0.596146 0.277907 7.67274 2.56179
-5.13498 77.3665 -153.981 557.067 82.8614 -511.926 1.96705 -11.2635 -3.74431 2.70196 -2.61257 -0.851461 -7.81501 18.1647 -15.2225 22.9144 -2.22448 -27.3526 -0.0 0.0 0.0 -0.0 0.0 0.0 9.95623e-15 5.72228e-12 -1.93417e-13 80.2086 29.8998 -12.8958 -9.39451 -3.78147 16.6708 -0.0436485 -5.95209 -0.839564 -3.70452e-10 7.02435e-10 -1.44339e-09 -6.34745e-10 1.21698e-09 -2.49712e-09 -3.70448e-10 7.02443e-10 -1.44341e-09 7.73091 5.47488 0.417314 -3.70453e-10 7.02435e-10 -1.4434e-09 2.90554 0.965183 0.102902 -3.70447e-10 7.02438e-10 -1.44339e-09 10.2786 0.731801 0.0259123 -3.70457e-10 7.02439e-10 -1.44339e-09 2.22167 -0.733487 -0.20892 9.92286e-15 5.72228e-12 -1.93765e-13 -84.2792 17.2299 10.1268 16.0219 -8.7076 -29.7188 1.422 31.7724 -4.99365 3.48234e-10 -1.0396e-10 -6.1232e-11 5.98111e-10 -1.82491e-10 -1.13647e-10 3.48226e-10 -1.03956e-10 -6.12289e-11 -7.73091 5.47488 -0.417314 3.48231e-10 -1.03961e-10 -6.12352e-11 -2.90554 0.965183 -0.102902 3.48222e-10 -1.03959e-10 -6.12241e-11 -10.2786 0.731801 -0.0259123 3.4824e-10 -1.0396e-10 -6.1232e-11 -2.22167 -0.733487 0.20892 -2.03217e-16 0.0 -3.88251e-19 14.0638 -32.2467 29.142 -0.146794 29.0428 0.398492 -9.53913 -15.0547 -26.6475 2.03217e-16 0.0 3.88251e-19 0.0510831 -12.1725 -4.54658 0.375064 41.1165 -0.65332 0.254175 9.5216 1.84305
-4.51935 77.3228 -153.899 556.395 82.7037 -512.713 2.42215 -11.2731 -3.68863 2.61667 -2.57512 -0.839809 -7.81163 18.1894 -15.2174 22.7638 -2.51863 -27.3118 -0.0 0.0 0.0 -0.0 0.0 0.0 2.90407e-14 6.3242e-12 -1.96565e-13 80.2788 30.5913 -12.7879 -9.5976 -3.90209 17.0466 -0.0527351 -6.55992 -0.925981 -3.68508e-10 7.26293e-10 -1.05054e-09 -6.34582e-10 1.2578e-09 -1.81827e-09 -3.68504e-10 7.26299e-10 -1.05056e-09 7.73091 5.47488 0.417314 -3.68508e-10 7.26293e-10 -1.05054e-09 2.90554 0.965183 0.102902 -3.68503e-10 7.26296e-10 -1.05054e-09 10.2786 0.731801 0.0259123 -3.68513e-10 7.26297e-10 -1.05053e-09 2.22167 -0.733487 -0.20892 2.90304e-14 6.3242e-12 -1.96835e-13 -84.3595 16.9301 10.0958 15.9194 -8.61207 -29.5035 1.40955 31.6521 -4.97012 6.50746e-10 -2.72744e-10 -8.60093e-11 1.12014e-09 -4.77342e-10 -1.64342e-10 6.50737e-10 -2.72741e-10 -8.60055e-11 -7.73091 5.47488 -0.417314 6.50745e-10 -2.72747e-10 -8.60131e-11 -2.90554 0.965183 -0.102902 6.50733e-10 -2.72744e-10 -8.6001e-11 -10.2786 0.731801 -0.0259123 6.50751e-10 -2.72746e-10 -8.60076e-11 -2.22167 -0.733487 0.20892 -2.03217e-16 0.0 -3.88251e-19 14.3844 -31.9995 28.8628 -0.148855 29.2214 0.357378 -9.26757 -14.2483 -27.0589 2.03217e-16 0.0 3.88251e-19 0.501354 -13.9305 -3.85735 0.446703 44.0669 -0.720935 0.23478 11.0229 1.54241
-3.92736 77.3552 -153.839 556.13 82.3899 -513.085 2.91023 -11.2793 -3.7117 2.52669 -2.54443 -0.851252 -7.86873 18.2436 -15.202 22.6561 -2.87868 -27.249 -0.0 0.0 0.0 -0.0 0.0 0.0 2.46761e-14 5.13357e-12 -1.67178e-13 80.3059 31.4036 -12.6615 -9.86346 -4.06049 17.5434 -0.063871 -7.21559 -1.01949 -5.42236e-10 3.26923e-10 4.11945e-10 -9.41622e-10 5.65903e-10 7.09412e-10 -5.42233e-10 3.26929e-10 4.11926e-10 7.73091 5.47488 0.417314 -5.42236e-10 3.26925e-10 4.11939e-10 2.90554 0.965183 0.102902 -5.42233e-10 3.26926e-10 4.11944e-10 10.2786 0.731801 0.0259123 -5.42241e-10 3.26927e-10 4.11947e-10 2.22167 -0.733487 -0.20892 2.46738e-14 5.13357e-12 -1.67321e-13 -84.4503 16.6901 10.0008 15.8349 -8.53435 -29.3254 1.38459 31.4072 -4.92253 1.1841e-09 -6.57195e-10 -2.41238e-10 2.03879e-09 -1.14581e-09 -4.47038e-10 1.18409e-09 -6.57193e-10 -2.41232e-10 -7.73091 5.47488 -0.417314 1.1841e-09 -6.57201e-10 -2.41242e-10 -2.90554 0.965183 -0.102902 1.18409e-09 -6.57198e-10 -2.4123e-10 -10.2786 0.731801 -0.0259123 1.1841e-09 -6.57199e-10 -2.41234e-10 -2.22167 -0.733487 0.20892 -2.03217e-16 0.0 -3.88251e-19 14.615 -31.7647 28.4125 -0.14991 29.2532 0.30617 -8.7955 -12.885 -27.722 2.03217e-16 0.0 3.88251e-19 0.884432 -15.8268 -3.45667 0.531579 47.0609 -0.80205 0.194577 12.3393 1.52042
